<svg width="21" height="15" viewBox="0 0 21 15" fill="none" xmlns="http://www.w3.org/2000/svg">
<path fill-rule="evenodd" clip-rule="evenodd" d="M0 14C0 13.4477 0.447715 13 1 13H18C18.5523 13 19 13.4477 19 14C19 14.5523 18.5523 15 18 15H1C0.447715 15 0 14.5523 0 14Z" fill="#333333"/>
<path fill-rule="evenodd" clip-rule="evenodd" d="M0 7.5C0 6.94772 0.447715 6.5 1 6.5H14C14.5523 6.5 15 6.94772 15 7.5C15 8.05228 14.5523 8.5 14 8.5H1C0.447715 8.5 0 8.05228 0 7.5Z" fill="#333333"/>
<path fill-rule="evenodd" clip-rule="evenodd" d="M0 1C0 0.447715 0.447715 0 1 0H20C20.5523 0 21 0.447715 21 1C21 1.55228 20.5523 2 20 2H1C0.447715 2 0 1.55228 0 1Z" fill="#333333"/>
</svg>
