<svg width="66" height="64" viewBox="0 0 66 64" fill="none" xmlns="http://www.w3.org/2000/svg">
<rect width="66" height="64" rx="32" fill="#FF9B44" fill-opacity="0.15"/>
<path d="M41.0405 31.8268C44.6825 31.8268 47.6345 28.8748 47.6345 25.2328C47.6345 21.5928 44.6825 18.6388 41.0405 18.6388" stroke="#FF9B44" stroke-width="1.5" stroke-linecap="round" stroke-linejoin="round"/>
<path d="M44.0728 38.9928C45.1608 39.0668 46.2408 39.2228 47.3068 39.4588C48.7848 39.7528 50.5648 40.3588 51.1968 41.6848C51.6008 42.5348 51.6008 43.5248 51.1968 44.3748C50.5668 45.7008 48.7848 46.3068 47.3068 46.6108" stroke="#FF9B44" stroke-width="1.5" stroke-linecap="round" stroke-linejoin="round"/>
<path fill-rule="evenodd" clip-rule="evenodd" d="M28.183 40.4126C35.563 40.4126 41.867 41.5306 41.867 45.9966C41.867 50.4646 35.603 51.6206 28.183 51.6206C20.803 51.6206 14.501 50.5046 14.501 46.0366C14.501 41.5686 20.763 40.4126 28.183 40.4126Z" stroke="#FF9B44" stroke-width="1.5" stroke-linecap="round" stroke-linejoin="round"/>
<path fill-rule="evenodd" clip-rule="evenodd" d="M28.183 34.0376C23.315 34.0376 19.415 30.1356 19.415 25.2676C19.415 20.4016 23.315 16.4996 28.183 16.4996C33.051 16.4996 36.953 20.4016 36.953 25.2676C36.953 30.1356 33.051 34.0376 28.183 34.0376Z" stroke="#FF9B44" stroke-width="1.5" stroke-linecap="round" stroke-linejoin="round"/>
</svg>
