<svg width="66" height="64" viewBox="0 0 66 64" fill="none" xmlns="http://www.w3.org/2000/svg">
<rect width="66" height="64" rx="32" fill="#FF9B44" fill-opacity="0.15"/>
<circle cx="32.1581" cy="22.5561" r="9.55606" stroke="#FF9B44" stroke-width="1.5" stroke-linecap="round" stroke-linejoin="round"/>
<path fill-rule="evenodd" clip-rule="evenodd" d="M17 45.4027C16.9975 44.731 17.1477 44.0674 17.4394 43.4622C18.3547 41.6316 20.936 40.6613 23.0778 40.222C24.6226 39.8923 26.1886 39.6721 27.7643 39.5629C30.6817 39.3067 33.6159 39.3067 36.5332 39.5629C38.1088 39.6734 39.6748 39.8936 41.2197 40.222C43.3616 40.6613 45.9428 41.54 46.8582 43.4622C47.4447 44.6958 47.4447 46.128 46.8582 47.3616C45.9428 49.2838 43.3616 50.1625 41.2197 50.5835C39.6768 50.9268 38.1102 51.1532 36.5332 51.2609C34.1587 51.4622 31.7732 51.4989 29.3936 51.3707C28.8444 51.3707 28.3135 51.3707 27.7643 51.2609C26.1933 51.1546 24.6326 50.9281 23.0961 50.5835C20.936 50.1625 18.373 49.2838 17.4394 47.3616C17.1492 46.7494 16.9991 46.0802 17 45.4027Z" stroke="#FF9B44" stroke-width="1.5" stroke-linecap="round" stroke-linejoin="round"/>
</svg>
